<svg width="20" height="20" viewBox="0 0 20 20" fill="none" xmlns="http://www.w3.org/2000/svg">
<path d="M8.44522 14.8321C8.75208 15.0366 9.14662 15.0557 9.47178 14.8817C9.79694 14.7077 9.99992 14.3688 9.99992 14L9.99992 11.2019L15.4452 14.8321C15.7521 15.0366 16.1466 15.0557 16.4718 14.8817C16.7969 14.7077 16.9999 14.3688 16.9999 14V6C16.9999 5.63121 16.7969 5.29235 16.4718 5.11833C16.1466 4.94431 15.7521 4.96338 15.4452 5.16795L9.99992 8.79815V6C9.99992 5.63121 9.79694 5.29235 9.47178 5.11833C9.14662 4.94431 8.75208 4.96338 8.44522 5.16795L2.44522 9.16795C2.16702 9.35342 1.99992 9.66565 1.99992 10C1.99992 10.3344 2.16702 10.6466 2.44522 10.8321L8.44522 14.8321Z" fill="#21272A"/>
</svg>
