<svg width="20" height="20" viewBox="0 0 20 20" fill="none" xmlns="http://www.w3.org/2000/svg">
<path fill-rule="evenodd" clip-rule="evenodd" d="M6.99999 2C7.55228 2 7.99999 2.44772 7.99999 3V4H8.73221C8.74398 3.99979 8.75579 3.99979 8.76763 4H11C11.5523 4 12 4.44772 12 5C12 5.55228 11.5523 6 11 6H9.57799C9.21633 7.68748 8.63074 9.29154 7.85404 10.7796C8.14481 11.1338 8.44963 11.476 8.76765 11.8055C9.15123 12.2028 9.14006 12.8359 8.74271 13.2195C8.34535 13.603 7.71229 13.5919 7.32871 13.1945C7.13961 12.9986 6.95467 12.7987 6.77403 12.5948C5.88894 13.9101 4.84385 15.1084 3.66691 16.1618C3.25538 16.5301 2.62319 16.4951 2.25486 16.0836C1.88653 15.672 1.92155 15.0398 2.33308 14.6715C3.54617 13.5858 4.60213 12.3288 5.46308 10.9389C4.90662 10.1499 4.40866 9.31652 3.97557 8.44503C3.72978 7.95045 3.93147 7.35027 4.42605 7.10449C4.92063 6.8587 5.52081 7.06039 5.76659 7.55497C6.00019 8.02502 6.25494 8.48278 6.52959 8.92699C6.94698 7.99272 7.28246 7.01402 7.52696 6H2.99999C2.44771 6 1.99999 5.55228 1.99999 5C1.99999 4.44772 2.44771 4 2.99999 4H5.99999V3C5.99999 2.44772 6.44771 2 6.99999 2ZM13 8C13.3788 8 13.725 8.214 13.8944 8.55279L16.8854 14.5348C16.8919 14.5471 16.8981 14.5596 16.9041 14.5722L17.8944 16.5528C18.1414 17.0468 17.9412 17.6474 17.4472 17.8944C16.9532 18.1414 16.3526 17.9412 16.1056 17.4472L15.382 16H10.618L9.89442 17.4472C9.64743 17.9412 9.04676 18.1414 8.55278 17.8944C8.0588 17.6474 7.85858 17.0468 8.10557 16.5528L9.09588 14.5722C9.10185 14.5596 9.10808 14.5471 9.11457 14.5348L12.1056 8.55279C12.275 8.214 12.6212 8 13 8ZM11.618 14H14.382L13 11.2361L11.618 14Z" fill="#21272A"/>
</svg>
