<svg width="24" height="24" viewBox="0 0 24 24" fill="none" xmlns="http://www.w3.org/2000/svg">
<path d="M9.99997 14H5.23604C3.74928 14 2.78228 12.4354 3.44719 11.1056L6.94719 4.10557C7.28597 3.42801 7.9785 3 8.73604 3H12.7538C12.9173 3 13.0802 3.02005 13.2388 3.05972L17 4M9.99997 14V19C9.99997 20.1046 10.8954 21 12 21H12.0954C12.595 21 13 20.595 13 20.0955C13 19.3812 13.2114 18.6828 13.6076 18.0885L17 13V4M9.99997 14H12M17 4H19C20.1045 4 21 4.89543 21 6V12C21 13.1046 20.1045 14 19 14H16.5" stroke="#21272A" stroke-width="2" stroke-linecap="round" stroke-linejoin="round"/>
</svg>
